<svg width="118" height="127" viewBox="0 0 118 127" fill="none" xmlns="http://www.w3.org/2000/svg">
<path fill-rule="evenodd" clip-rule="evenodd" d="M65.1565 16.6802C61.0459 14.305 55.9799 14.305 51.8692 16.6802L21.5345 34.2079C17.4281 36.5807 14.8988 40.9633 14.8988 45.7059V80.79C14.8988 85.5326 17.4281 89.9153 21.5345 92.288L27.8275 95.9241L64.9572 74.4702C68.9652 72.1543 71.4339 67.8767 71.4339 63.2478C71.4339 58.9487 69.245 54.9118 65.7308 52.5089L79.2563 44.6937C83.7475 49.7257 86.3327 56.3027 86.3327 63.2478C86.3327 73.1977 81.0263 82.3924 72.4111 87.3704L42.7174 104.528L27.8275 113.131L14.0807 105.188C5.36706 100.153 0 90.8536 0 80.79V45.7059C0 35.6423 5.36703 26.3426 14.0806 21.3078L44.4154 3.78003C53.138 -1.26001 63.8878 -1.26001 72.6104 3.78004L89.1959 13.3633L74.3024 21.9648L65.1565 16.6802Z" fill="url(#paint0_linear_494_36)"/>
<path d="M44.5873 39.1258C35.9699 44.1025 30.6617 53.298 30.6617 63.2493C30.6617 70.1966 33.2489 76.7757 37.7433 81.808L51.2712 73.9915C47.717 71.5943 45.5605 67.5752 45.5605 63.2493C45.5605 58.6202 48.0298 54.3427 52.0383 52.0276L58.5014 48.2951L58.5048 48.2975L89.1942 30.5694L95.4912 34.2079C99.5976 36.5807 102.127 40.9633 102.127 45.7059V80.79C102.127 85.5326 99.5976 89.9153 95.4912 92.288L65.1565 109.816C61.0458 112.191 55.9799 112.191 51.8692 109.816L42.7174 104.528L27.8275 113.131L44.4154 122.716C53.138 127.756 63.8878 127.756 72.6104 122.716L102.945 105.188C111.659 100.153 117.026 90.8536 117.026 80.79V45.7059C117.026 35.6423 111.659 26.3426 102.945 21.3077L89.1959 13.3633L74.3024 21.9648L44.5873 39.1258Z" fill="url(#paint1_linear_494_36)"/>
<defs>
<linearGradient id="paint0_linear_494_36" x1="58.5129" y1="0" x2="58.5129" y2="126.496" gradientUnits="userSpaceOnUse">
<stop stop-color="#FF4B1F"/>
<stop offset="1" stop-color="#FF9068"/>
</linearGradient>
<linearGradient id="paint1_linear_494_36" x1="58.5129" y1="0" x2="58.5129" y2="126.496" gradientUnits="userSpaceOnUse">
<stop stop-color="#FF4B1F"/>
<stop offset="1" stop-color="#FF9068"/>
</linearGradient>
</defs>
</svg>
